<svg width="87" height="49" viewBox="0 0 87 49" fill="none" xmlns="http://www.w3.org/2000/svg">
<path d="M8.46143 22H4.70752C4.6167 22 4.56624 21.9495 4.55615 21.8486L0.272461 0.55127C0.252279 0.47054 0.292643 0.430176 0.393555 0.430176H3.90527C3.986 0.430176 4.03646 0.47054 4.05664 0.55127L6.59961 14.7495L9.08203 0.55127C9.10221 0.47054 9.15267 0.430176 9.2334 0.430176H12.6997C12.8107 0.430176 12.8511 0.47054 12.8208 0.55127L8.61279 21.8486C8.6027 21.9495 8.55225 22 8.46143 22ZM18.3003 22H14.7886C14.6877 22 14.6372 21.9495 14.6372 21.8486L14.6675 0.55127C14.6675 0.47054 14.7078 0.430176 14.7886 0.430176H18.27C18.3507 0.430176 18.3911 0.47054 18.3911 0.55127L18.4214 21.8486C18.4214 21.9495 18.381 22 18.3003 22ZM24.7788 22H21.2671C21.1864 22 21.146 21.9495 21.146 21.8486L21.2065 0.55127C21.2065 0.47054 21.2469 0.430176 21.3276 0.430176H27.5942C28.7144 0.430176 29.7437 0.702637 30.6821 1.24756C31.6206 1.79248 32.3674 2.52409 32.9224 3.44238C33.4875 4.36068 33.77 5.40007 33.77 6.56055C33.77 7.31738 33.654 8.00358 33.4219 8.61914C33.1898 9.2347 32.9173 9.75439 32.6045 10.1782C32.3018 10.6021 32.0243 10.9149 31.772 11.1167C32.8921 12.3579 33.4521 13.8161 33.4521 15.4912L33.4824 21.8486C33.4824 21.9495 33.432 22 33.3311 22H29.8193C29.7386 22 29.6982 21.9697 29.6982 21.9092V15.4912C29.6982 14.7445 29.4359 14.0986 28.9111 13.5537C28.3864 13.0088 27.7406 12.7363 26.9736 12.7363H24.9302L24.8999 21.8486C24.8999 21.9495 24.8595 22 24.7788 22ZM27.5942 4.13867H24.9302V9.0127H27.5942C28.23 9.0127 28.7951 8.77555 29.2896 8.30127C29.7941 7.82699 30.0464 7.24674 30.0464 6.56055C30.0464 5.90462 29.8042 5.33952 29.3198 4.86523C28.8354 4.38086 28.2603 4.13867 27.5942 4.13867ZM42.7158 22H39.2192C39.1284 22 39.083 21.9495 39.083 21.8486V4.16895H35.0566C34.9557 4.16895 34.9053 4.11849 34.9053 4.01758L34.9355 0.55127C34.9355 0.47054 34.9759 0.430176 35.0566 0.430176H46.833C46.944 0.430176 46.9995 0.47054 46.9995 0.55127V4.01758C46.9995 4.11849 46.9591 4.16895 46.8784 4.16895H42.8066L42.8369 21.8486C42.8369 21.9495 42.7965 22 42.7158 22ZM54.2197 22.3027C53.1299 22.3027 52.1208 22.0202 51.1924 21.4551C50.264 20.89 49.5223 20.1331 48.9673 19.1846C48.4224 18.2259 48.1499 17.1815 48.1499 16.0513L48.2104 0.55127C48.2104 0.47054 48.2508 0.430176 48.3315 0.430176H51.813C51.8937 0.430176 51.9341 0.47054 51.9341 0.55127V16.0513C51.9341 16.7476 52.1561 17.3429 52.6001 17.8374C53.0441 18.3218 53.584 18.564 54.2197 18.564C54.8857 18.564 55.4408 18.3218 55.8848 17.8374C56.3288 17.3429 56.5508 16.7476 56.5508 16.0513V0.55127C56.5508 0.47054 56.5911 0.430176 56.6719 0.430176H60.1533C60.234 0.430176 60.2744 0.47054 60.2744 0.55127L60.335 16.0513C60.335 17.1916 60.0625 18.241 59.5176 19.1997C58.9626 20.1483 58.2259 20.9051 57.3076 21.4702C56.3893 22.0252 55.36 22.3027 54.2197 22.3027ZM61.7275 21.8486L65.5723 0.55127C65.5924 0.47054 65.6429 0.430176 65.7236 0.430176H70.2192C70.3 0.430176 70.3504 0.47054 70.3706 0.55127L74.064 21.8486C74.0741 21.9495 74.0337 22 73.9429 22H70.5068C70.4059 22 70.3504 21.9495 70.3403 21.8486L70.0073 19.5781H65.7842L65.4512 21.8486C65.4411 21.9495 65.3906 22 65.2998 22H61.8486C61.7679 22 61.7275 21.9495 61.7275 21.8486ZM67.7974 7.55957L66.4048 16.2632H69.3867L68.1152 7.55957L67.9336 6.40918L67.7974 7.55957ZM86.1431 22H76.1226C76.0418 22 76.0015 21.9495 76.0015 21.8486L76.0317 0.581543C76.0317 0.480632 76.0822 0.430176 76.1831 0.430176H79.6343C79.7352 0.430176 79.7856 0.480632 79.7856 0.581543L79.7554 18.1855H86.1431C86.244 18.1855 86.2944 18.236 86.2944 18.3369V21.8486C86.2944 21.9495 86.244 22 86.1431 22ZM8.46143 49H4.70752C4.6167 49 4.56624 48.9495 4.55615 48.8486L0.272461 27.5513C0.252279 27.4705 0.292643 27.4302 0.393555 27.4302H3.90527C3.986 27.4302 4.03646 27.4705 4.05664 27.5513L6.59961 41.7495L9.08203 27.5513C9.10221 27.4705 9.15267 27.4302 9.2334 27.4302H12.6997C12.8107 27.4302 12.8511 27.4705 12.8208 27.5513L8.61279 48.8486C8.6027 48.9495 8.55225 49 8.46143 49ZM18.3003 49H14.7886C14.6877 49 14.6372 48.9495 14.6372 48.8486L14.6675 27.5513C14.6675 27.4705 14.7078 27.4302 14.7886 27.4302H18.27C18.3507 27.4302 18.3911 27.4705 18.3911 27.5513L18.4214 48.8486C18.4214 48.9495 18.381 49 18.3003 49ZM26.8223 49H21.2671C21.1864 49 21.146 48.9495 21.146 48.8486L21.2065 27.5513C21.2065 27.4705 21.2469 27.4302 21.3276 27.4302H27.2915C28.452 27.4302 29.5065 27.7127 30.4551 28.2778C31.3835 28.8429 32.1151 29.5947 32.6499 30.5332C33.1847 31.4616 33.4521 32.4707 33.4521 33.5605C33.4521 34.4486 33.2503 35.276 32.8467 36.043C32.443 36.8099 31.9637 37.4305 31.4087 37.9048C32.0041 38.5002 32.4683 39.1914 32.8013 39.9785C33.1343 40.7656 33.3008 41.5931 33.3008 42.4609C33.3008 43.6618 33.0132 44.7567 32.438 45.7456C31.8527 46.7345 31.0706 47.5267 30.0918 48.1221C29.113 48.7074 28.0231 49 26.8223 49ZM27.2915 31.1084H24.9302V35.9824H27.2915C28.008 35.9824 28.5882 35.7301 29.0322 35.2256C29.4762 34.7109 29.6982 34.1559 29.6982 33.5605C29.6982 32.9046 29.4611 32.3345 28.9868 31.8501C28.5125 31.3556 27.9474 31.1084 27.2915 31.1084ZM26.8223 39.7363H24.9302L24.8999 45.2158H26.8223C27.569 45.2158 28.2098 44.9434 28.7446 44.3984C29.2795 43.8535 29.5469 43.2077 29.5469 42.4609C29.5469 41.7142 29.2795 41.0734 28.7446 40.5386C28.2098 40.0037 27.569 39.7363 26.8223 39.7363ZM45.6675 49H35.647C35.5662 49 35.5259 48.9495 35.5259 48.8486L35.5562 27.5513C35.5562 27.4705 35.5965 27.4302 35.6772 27.4302H45.6372C45.7179 27.4302 45.7583 27.4806 45.7583 27.5815V31.0479C45.7583 31.1286 45.7179 31.1689 45.6372 31.1689H39.2798V36.0127H45.6372C45.7179 36.0127 45.7583 36.0531 45.7583 36.1338L45.7886 39.6455C45.7886 39.7262 45.7482 39.7666 45.6675 39.7666H39.2798V45.1855H45.6675C45.7482 45.1855 45.7886 45.236 45.7886 45.3369V48.8789C45.7886 48.9596 45.7482 49 45.6675 49Z" fill="white"/>
</svg>
